<?xml version="1.0" encoding="UTF-8"?>
<svg xmlns="http://www.w3.org/2000/svg" viewBox="0 0 154 51" preserveAspectRatio="xMidYMid meet">
  <g transform="translate(-586.143 -205.77389)" fill="black">
    <path d="M 587.143,255.53339 L 595.446,255.53339 L 595.446,237.49768 L 604.643,247.67625 L 616.25,247.67625 L 602.67857,232.85482 L 614.64286,219.28339 L 603.21429,219.28339 L 595.446,228.03339 L 595.446,218.56911 L 587.143,218.56911 L 587.143,255.53339 z"/>
    <path d="M 627.89068,218.66942 C 619.88299,218.66942 613.40626,225.14616 613.40625,233.15385 C 613.40625,241.16153 619.88298,247.66942 627.89068,247.66942 C 635.89836,247.66942 642.40622,241.16154 642.40625,233.15385 C 642.40625,225.14616 635.89835,218.66941 627.89068,218.66942 z"/>
    <path d="M 660.09375,218.79442 C 652.08284,218.79442 645.59373,225.28349 645.59375,233.29442 C 645.59375,241.30533 652.08282,247.79442 660.09375,247.79442 C 668.10467,247.79442 674.59375,241.30533 674.59375,233.29442 C 674.59375,225.2835 668.10466,218.79441 660.09375,218.79442 z"/>
    <path fill-rule="evenodd" d="M 699.8125,206.77389 L 699.8125,222.05514 C 697.53525,220.46307 694.76866,218.89889 691.78125,218.89889 C 684.90984,218.89889 677.40625,223.68079 677.40625,233.55514 C 677.40625,241.30816 684.0282,247.61764 691.78125,247.61764 C 700.28519,247.61764 706.5,240.07072 706.5,233.55514 L 706.5,206.77389 L 699.8125,206.77389 z M 691.5625,225.43014 C 695.93186,225.43015 699.46875,228.9983 699.46875,233.36764 C 699.46877,237.73698 695.93184,241.27389 691.5625,241.27389 C 687.19318,241.27389 683.625,237.73698 683.625,233.36764 C 683.62501,228.9983 687.19316,225.43014 691.5625,225.43014 z"/>
    <path d="M 723.73426,218.74264 C 715.72774,218.74264 709.24998,225.2448 709.25,233.24264 C 709.25,241.24048 715.72772,247.74263 723.73426,247.74264 C 731.74078,247.74264 738.24999,241.24047 738.25,233.24264 C 738.25,225.2448 731.74076,218.74264 723.73426,218.74264 z"/>
  </g>
</svg>
